<svg width="18" height="18" viewBox="0 0 18 18" fill="none" xmlns="http://www.w3.org/2000/svg">
<path d="M0 9C0 4.02938 4.02938 0 9 0C13.9706 0 18 4.02938 18 9C18 13.9706 13.9706 18 9 18C4.02938 18 0 13.9706 0 9Z" fill="#3FA4F1"/>
<path d="M9.94537 7.31546L9.96412 7.62671L9.6495 7.58846C8.50387 7.44221 7.503 6.94646 6.65325 6.11396L6.23737 5.70109L6.1305 6.00596C5.904 6.68621 6.04875 7.40434 6.5205 7.88734C6.7725 8.15434 6.71587 8.19221 6.28162 8.03359C6.1305 7.98259 5.99812 7.94434 5.98537 7.96346C5.9415 8.00809 6.09262 8.58634 6.21225 8.81509C6.37612 9.13309 6.7095 9.44434 7.07475 9.62884L7.38337 9.77509L7.01812 9.78109C6.66562 9.78109 6.65287 9.78746 6.69075 9.92096C6.81675 10.3342 7.314 10.7726 7.86825 10.9635L8.25825 11.097L7.9185 11.3002C7.40422 11.5957 6.82399 11.7574 6.231 11.7705C5.94787 11.7768 5.715 11.8023 5.715 11.8215C5.715 11.8852 6.483 12.2407 6.93 12.3806C8.271 12.7938 9.86362 12.6157 11.0599 11.9103C11.9096 11.4082 12.7594 10.4103 13.1561 9.44434C13.3699 8.92946 13.584 7.98896 13.584 7.53784C13.584 7.24534 13.6027 7.20709 13.9552 6.85759C14.1634 6.65434 14.3584 6.43196 14.3962 6.36821C14.4592 6.24746 14.4529 6.24746 14.1319 6.35546C13.5967 6.54634 13.521 6.52084 13.7857 6.23471C13.9807 6.03146 14.2136 5.66284 14.2136 5.55484C14.2136 5.53609 14.1191 5.56759 14.0122 5.62459C13.899 5.68834 13.647 5.78359 13.4584 5.84096L13.1182 5.94896L12.8096 5.73896C12.6397 5.62459 12.4009 5.49746 12.2749 5.45959C11.9535 5.37034 11.4626 5.38309 11.1731 5.48509C10.386 5.77084 9.88875 6.50846 9.94537 7.31546Z" fill="white"/>
</svg>
